<svg xmlns="http://www.w3.org/2000/svg" xmlns:xlink="http://www.w3.org/1999/xlink" width="500" zoomAndPan="magnify" viewBox="0 0 375 374.999991" height="500" preserveAspectRatio="xMidYMid meet" version="1.2"><g id="74a5e6dcc2"><path style=" stroke:none;fill-rule:evenodd;fill:#ffffff;fill-opacity:1;" d="M 239.585938 109.550781 C 224.167969 99.25 206.042969 93.75 187.5 93.75 L 187.5 0 C 224.582031 0 260.835938 10.996094 291.667969 31.597656 C 322.503906 52.203125 346.535156 81.484375 360.726562 115.746094 C 374.917969 150.007812 378.632812 187.707031 371.398438 224.078125 C 364.164062 260.449219 346.304688 293.859375 320.082031 320.082031 C 293.859375 346.304688 260.449219 364.164062 224.078125 371.398438 C 187.707031 378.632812 150.007812 374.917969 115.746094 360.726562 C 81.484375 346.535156 52.203125 322.503906 31.597656 291.667969 C 10.996094 260.835938 0 224.582031 0 187.5 L 93.75 187.5 C 93.75 206.042969 99.25 224.167969 109.550781 239.585938 C 119.851562 255 134.492188 267.019531 151.625 274.113281 C 168.753906 281.210938 187.605469 283.066406 205.789062 279.449219 C 223.976562 275.832031 240.679688 266.902344 253.792969 253.792969 C 266.902344 240.679688 275.832031 223.976562 279.449219 205.789062 C 283.066406 187.605469 281.210938 168.753906 274.113281 151.625 C 267.019531 134.492188 255 119.851562 239.585938 109.550781 Z M 239.585938 109.550781 "/><path style=" stroke:none;fill-rule:evenodd;fill:#ffffff;fill-opacity:1;" d="M 93.75 0 C 93.75 12.3125 91.324219 24.503906 86.613281 35.875 C 81.902344 47.25 74.996094 57.585938 66.292969 66.292969 C 57.585938 74.996094 47.25 81.902344 35.875 86.613281 C 24.503906 91.324219 12.3125 93.75 0 93.75 L 0 187.5 C 24.621094 187.5 49.003906 182.648438 71.753906 173.226562 C 94.5 163.804688 115.171875 149.992188 132.582031 132.582031 C 149.992188 115.171875 163.804688 94.5 173.226562 71.753906 C 182.648438 49.003906 187.5 24.621094 187.5 0 Z M 93.75 0 "/></g></svg>